# xmcd CD database file generated by OrangeCD 6.0
#
# Track frame offsets:
#	150
#	19908
#	33323
#	54765
#	88040
#	97280
#	113368
#	130280
#	141425
#	159058
#	172738
#
# Disc length: 2579 seconds
#
# Revision: 0
# Processed by: cddbd v1.5.2PL0 Copyright (c) Steve Scherf et al.
# Submitted via: OrangeCD 6.0
#
DISCID=810a110b
DTITLE=Lightning Red - Red's Blues
DYEAR=1992
DGENRE=
TTITLE0=One Man's Heaven
TTITLE1=Like An Angel
TTITLE2=East St. Louis
TTITLE3=If You See Me
TTITLE4=Austin Boogie
TTITLE5=Irene
TTITLE6=Let Me Love You
TTITLE7=Red's Blues
TTITLE8=Big City Blues
TTITLE9=How Much?
TTITLE10=Got The Power
EXTD=
EXTT0=
EXTT1=
EXTT2=
EXTT3=
EXTT4=
EXTT5=
EXTT6=
EXTT7=
EXTT8=
EXTT9=
EXTT10=
PLAYORDER=
